<svg width="433.8938354492187px" height="124.39999999999999px" xmlns="http://www.w3.org/2000/svg" viewBox="33.053082275390636 12.800000000000004 433.8938354492187 124.39999999999999" style="background: rgba(0, 0, 0, 0);" preserveAspectRatio="xMidYMid"><defs><filter id="editing-extrude-glow"><feFlood flood-color="#333333" result="flood-1"></feFlood><feMorphology operator="erode" radius="1" in="SourceAlpha" result="erode"></feMorphology><feComposite operator="in" in="flood-1" in2="erode" result="comp1"></feComposite><feConvolveMatrix order="3,3" divisor="1" in="comp1" result="convolve" kernelMatrix="0 0 0 1 1 1 0 0 0"></feConvolveMatrix><feOffset dx="-3" dy="0" in="convolve" result="extrude"></feOffset><feComposite operator="in" in="flood-1" in2="extrude" result="comp-extrude"></feComposite><feFlood flood-color="#000000" result="flood-2"></feFlood><feComposite operator="in" in="flood-2" in2="SourceAlpha" result="comp2"></feComposite><feMorphology operator="dilate" radius="1" in="comp2" result="dilate"></feMorphology><feOffset dx="-4.5" dy="0" in="dilate" result="offset"></feOffset><feGaussianBlur in="offset" stdDeviation="5.8" result="blur"></feGaussianBlur><feComponentTransfer in="blur" result="shadow"><feFuncA type="linear" slope="0.8" intercept="-0.2"></feFuncA></feComponentTransfer><feMerge><feMergeNode in="shadow"></feMergeNode><feMergeNode in="comp-extrude"></feMergeNode><feMergeNode in="SourceGraphic"></feMergeNode></feMerge></filter></defs><g filter="url(#editing-extrude-glow)"><g transform="translate(97.21026992797852, 97.72000312805176)"><path d="M39.36-8.96L39.36 0L3.84 0L3.84-44.80L39.36-44.80L39.36-35.84L15.36-35.84L15.36-27.20L34.24-27.20L34.24-18.24L15.36-18.24L15.36-8.96L39.36-8.96ZM68.80-24.64L63.36-24.64L63.36-24.64Q59.33-24.64 55.04-22.72L55.04-22.72L55.04 0L43.84 0L43.84-33.92L53.76-33.92L54.40-29.76L54.40-29.76Q59.90-34.56 65.92-34.56L65.92-34.56L68.80-34.56L68.80-24.64ZM106.56-24.32L106.56-9.60L106.56-9.60Q106.56-4.80 103.84-2.08L103.84-2.08L103.84-2.08Q101.12 0.64 96.32 0.64L96.32 0.64L81.60 0.64L81.60 0.64Q76.80 0.64 74.08-2.08L74.08-2.08L74.08-2.08Q71.36-4.80 71.36-9.60L71.36-9.60L71.36-24.32L71.36-24.32Q71.36-29.12 74.08-31.84L74.08-31.84L74.08-31.84Q76.80-34.56 81.60-34.56L81.60-34.56L96.32-34.56L96.32-34.56Q101.12-34.56 103.84-31.84L103.84-31.84L103.84-31.84Q106.56-29.12 106.56-24.32L106.56-24.32ZM95.36-10.56L95.36-23.36L95.36-23.36Q95.36-25.92 92.80-25.92L92.80-25.92L85.12-25.92L85.12-25.92Q82.56-25.92 82.56-23.36L82.56-23.36L82.56-10.56L82.56-10.56Q82.56-8 85.12-8L85.12-8L92.80-8L92.80-8Q95.36-8 95.36-10.56L95.36-10.56ZM137.28-24.64L131.84-24.64L131.84-24.64Q127.81-24.64 123.52-22.72L123.52-22.72L123.52 0L112.32 0L112.32-33.92L122.24-33.92L122.88-29.76L122.88-29.76Q128.38-34.56 134.40-34.56L134.40-34.56L137.28-34.56L137.28-24.64ZM142.40 0L142.40-44.80L168-44.80L168-44.80Q174.27-44.80 177.22-41.95L177.22-41.95L177.22-41.95Q180.16-39.10 180.16-33.28L180.16-33.28L180.16-33.28Q180.16-29.44 178.50-27.04L178.50-27.04L178.50-27.04Q176.83-24.64 174.40-23.68L174.40-23.68L174.40-23.68Q179.58-22.27 181.44-16.77L181.44-16.77L181.44-16.77Q182.08-14.78 182.08-12.16L182.08-12.16L182.08-12.16Q182.08-5.89 179.14-2.94L179.14-2.94L179.14-2.94Q176.19 0 169.92 0L169.92 0L142.40 0ZM170.56-12.80L170.56-14.08L170.56-14.08Q170.56-17.92 166.72-17.92L166.72-17.92L153.92-17.92L153.92-8.96L166.72-8.96L166.72-8.96Q170.56-8.96 170.56-12.80L170.56-12.80ZM168.64-30.72L168.64-32L168.64-32Q168.64-35.84 164.80-35.84L164.80-35.84L153.92-35.84L153.92-26.88L164.80-26.88L164.80-26.88Q168.64-26.88 168.64-30.72L168.64-30.72ZM221.76-24.32L221.76-9.60L221.76-9.60Q221.76-4.80 219.04-2.08L219.04-2.08L219.04-2.08Q216.32 0.64 211.52 0.64L211.52 0.64L196.80 0.64L196.80 0.64Q192 0.64 189.28-2.08L189.28-2.08L189.28-2.08Q186.56-4.80 186.56-9.60L186.56-9.60L186.56-24.32L186.56-24.32Q186.56-29.12 189.28-31.84L189.28-31.84L189.28-31.84Q192-34.56 196.80-34.56L196.80-34.56L211.52-34.56L211.52-34.56Q216.32-34.56 219.04-31.84L219.04-31.84L219.04-31.84Q221.76-29.12 221.76-24.32L221.76-24.32ZM210.56-10.56L210.56-23.36L210.56-23.36Q210.56-25.92 208-25.92L208-25.92L200.32-25.92L200.32-25.92Q197.76-25.92 197.76-23.36L197.76-23.36L197.76-10.56L197.76-10.56Q197.76-8 200.32-8L200.32-8L208-8L208-8Q210.56-8 210.56-10.56L210.56-10.56ZM262.08-24.32L262.08-9.60L262.08-9.60Q262.08-4.80 259.36-2.08L259.36-2.08L259.36-2.08Q256.64 0.64 251.84 0.64L251.84 0.64L237.12 0.64L237.12 0.64Q232.32 0.64 229.60-2.08L229.60-2.08L229.60-2.08Q226.88-4.80 226.88-9.60L226.88-9.60L226.88-24.32L226.88-24.32Q226.88-29.12 229.60-31.84L229.60-31.84L229.60-31.84Q232.32-34.56 237.12-34.56L237.12-34.56L251.84-34.56L251.84-34.56Q256.64-34.56 259.36-31.84L259.36-31.84L259.36-31.84Q262.08-29.12 262.08-24.32L262.08-24.32ZM250.88-10.56L250.88-23.36L250.88-23.36Q250.88-25.92 248.32-25.92L248.32-25.92L240.64-25.92L240.64-25.92Q238.08-25.92 238.08-23.36L238.08-23.36L238.08-10.56L238.08-10.56Q238.08-8 240.64-8L240.64-8L248.32-8L248.32-8Q250.88-8 250.88-10.56L250.88-10.56ZM283.84-13.44L279.04-13.44L279.04 0L267.84 0L267.84-44.80L279.04-44.80L279.04-22.08L284.16-22.08L291.20-33.92L303.04-33.92L293.44-17.60L303.04 0L291.20 0L283.84-13.44Z" fill="#bb0812"></path></g></g><style>text {
  font-size: 64px;
  font-family: Arial Black;
  dominant-baseline: central;
  text-anchor: middle;
}</style></svg>