<svg width="473.93035888671875px" height="124.39999999999999px" xmlns="http://www.w3.org/2000/svg" viewBox="13.034820556640625 12.800000000000004 473.93035888671875 124.39999999999999" style="background: rgba(0, 0, 0, 0);" preserveAspectRatio="xMidYMid"><defs><filter id="editing-extrude-glow"><feFlood flood-color="#333333" result="flood-1"></feFlood><feMorphology operator="erode" radius="1" in="SourceAlpha" result="erode"></feMorphology><feComposite operator="in" in="flood-1" in2="erode" result="comp1"></feComposite><feConvolveMatrix order="3,3" divisor="1" in="comp1" result="convolve" kernelMatrix="0 0 0 1 1 1 0 0 0"></feConvolveMatrix><feOffset dx="-3" dy="0" in="convolve" result="extrude"></feOffset><feComposite operator="in" in="flood-1" in2="extrude" result="comp-extrude"></feComposite><feFlood flood-color="#000000" result="flood-2"></feFlood><feComposite operator="in" in="flood-2" in2="SourceAlpha" result="comp2"></feComposite><feMorphology operator="dilate" radius="1" in="comp2" result="dilate"></feMorphology><feOffset dx="-4.5" dy="0" in="dilate" result="offset"></feOffset><feGaussianBlur in="offset" stdDeviation="5.8" result="blur"></feGaussianBlur><feComponentTransfer in="blur" result="shadow"><feFuncA type="linear" slope="0.8" intercept="-0.2"></feFuncA></feComponentTransfer><feMerge><feMergeNode in="shadow"></feMergeNode><feMergeNode in="comp-extrude"></feMergeNode><feMergeNode in="SourceGraphic"></feMergeNode></feMerge></filter></defs><g filter="url(#editing-extrude-glow)"><g transform="translate(82.49222946166992, 97.72000312805176)"><path d="M39.36-8.96L39.36 0L3.84 0L3.84-44.80L39.36-44.80L39.36-35.84L15.36-35.84L15.36-27.20L34.24-27.20L34.24-18.24L15.36-18.24L15.36-8.96L39.36-8.96ZM68.80-24.64L63.36-24.64L63.36-24.64Q59.33-24.64 55.04-22.72L55.04-22.72L55.04 0L43.84 0L43.84-33.92L53.76-33.92L54.40-29.76L54.40-29.76Q59.90-34.56 65.92-34.56L65.92-34.56L68.80-34.56L68.80-24.64ZM98.24-24.64L92.80-24.64L92.80-24.64Q88.77-24.64 84.48-22.72L84.48-22.72L84.48 0L73.28 0L73.28-33.92L83.20-33.92L83.84-29.76L83.84-29.76Q89.34-34.56 95.36-34.56L95.36-34.56L98.24-34.56L98.24-24.64ZM136-24.32L136-9.60L136-9.60Q136-4.80 133.28-2.08L133.28-2.08L133.28-2.08Q130.56 0.64 125.76 0.64L125.76 0.64L111.04 0.64L111.04 0.64Q106.24 0.64 103.52-2.08L103.52-2.08L103.52-2.08Q100.80-4.80 100.80-9.60L100.80-9.60L100.80-24.32L100.80-24.32Q100.80-29.12 103.52-31.84L103.52-31.84L103.52-31.84Q106.24-34.56 111.04-34.56L111.04-34.56L125.76-34.56L125.76-34.56Q130.56-34.56 133.28-31.84L133.28-31.84L133.28-31.84Q136-29.12 136-24.32L136-24.32ZM124.80-10.56L124.80-23.36L124.80-23.36Q124.80-25.92 122.24-25.92L122.24-25.92L114.56-25.92L114.56-25.92Q112-25.92 112-23.36L112-23.36L112-10.56L112-10.56Q112-8 114.56-8L114.56-8L122.24-8L122.24-8Q124.80-8 124.80-10.56L124.80-10.56ZM166.72-24.64L161.28-24.64L161.28-24.64Q157.25-24.64 152.96-22.72L152.96-22.72L152.96 0L141.76 0L141.76-33.92L151.68-33.92L152.32-29.76L152.32-29.76Q157.82-34.56 163.84-34.56L163.84-34.56L166.72-34.56L166.72-24.64ZM171.84 0L171.84-44.80L197.44-44.80L197.44-44.80Q203.71-44.80 206.66-41.95L206.66-41.95L206.66-41.95Q209.60-39.10 209.60-33.28L209.60-33.28L209.60-33.28Q209.60-29.44 207.94-27.04L207.94-27.04L207.94-27.04Q206.27-24.64 203.84-23.68L203.84-23.68L203.84-23.68Q209.02-22.27 210.88-16.77L210.88-16.77L210.88-16.77Q211.52-14.78 211.52-12.16L211.52-12.16L211.52-12.16Q211.52-5.89 208.58-2.94L208.58-2.94L208.58-2.94Q205.63 0 199.36 0L199.36 0L171.84 0ZM200-12.80L200-14.08L200-14.08Q200-17.92 196.16-17.92L196.16-17.92L183.36-17.92L183.36-8.96L196.16-8.96L196.16-8.96Q200-8.96 200-12.80L200-12.80ZM198.08-30.72L198.08-32L198.08-32Q198.08-35.84 194.24-35.84L194.24-35.84L183.36-35.84L183.36-26.88L194.24-26.88L194.24-26.88Q198.08-26.88 198.08-30.72L198.08-30.72ZM251.20-24.32L251.20-9.60L251.20-9.60Q251.20-4.80 248.48-2.08L248.48-2.08L248.48-2.08Q245.76 0.64 240.96 0.64L240.96 0.64L226.24 0.64L226.24 0.64Q221.44 0.64 218.72-2.08L218.72-2.08L218.72-2.08Q216-4.80 216-9.60L216-9.60L216-24.32L216-24.32Q216-29.12 218.72-31.84L218.72-31.84L218.72-31.84Q221.44-34.56 226.24-34.56L226.24-34.56L240.96-34.56L240.96-34.56Q245.76-34.56 248.48-31.84L248.48-31.84L248.48-31.84Q251.20-29.12 251.20-24.32L251.20-24.32ZM240-10.56L240-23.36L240-23.36Q240-25.92 237.44-25.92L237.44-25.92L229.76-25.92L229.76-25.92Q227.20-25.92 227.20-23.36L227.20-23.36L227.20-10.56L227.20-10.56Q227.20-8 229.76-8L229.76-8L237.44-8L237.44-8Q240-8 240-10.56L240-10.56ZM291.52-24.32L291.52-9.60L291.52-9.60Q291.52-4.80 288.80-2.08L288.80-2.08L288.80-2.08Q286.08 0.64 281.28 0.64L281.28 0.64L266.56 0.64L266.56 0.64Q261.76 0.64 259.04-2.08L259.04-2.08L259.04-2.08Q256.32-4.80 256.32-9.60L256.32-9.60L256.32-24.32L256.32-24.32Q256.32-29.12 259.04-31.84L259.04-31.84L259.04-31.84Q261.76-34.56 266.56-34.56L266.56-34.56L281.28-34.56L281.28-34.56Q286.08-34.56 288.80-31.84L288.80-31.84L288.80-31.84Q291.52-29.12 291.52-24.32L291.52-24.32ZM280.32-10.56L280.32-23.36L280.32-23.36Q280.32-25.92 277.76-25.92L277.76-25.92L270.08-25.92L270.08-25.92Q267.52-25.92 267.52-23.36L267.52-23.36L267.52-10.56L267.52-10.56Q267.52-8 270.08-8L270.08-8L277.76-8L277.76-8Q280.32-8 280.32-10.56L280.32-10.56ZM313.28-13.44L308.48-13.44L308.48 0L297.28 0L297.28-44.80L308.48-44.80L308.48-22.08L313.60-22.08L320.64-33.92L332.48-33.92L322.88-17.60L332.48 0L320.64 0L313.28-13.44Z" fill="#bb0812"></path></g></g><style>text {
  font-size: 64px;
  font-family: Arial Black;
  dominant-baseline: central;
  text-anchor: middle;
}</style></svg>